# xmcd
#
# Track frame offsets:
#	150
#	13322
#	23675
#	35890
#	45677
#	57350
#	67907
#	80865
#	91310
#	102617
#	114167
#	123622
#	133720
#	146525
#	156967
#	166760
#	176990
#	186832
#	198200
#	208050
#	216167
#	229762
#	241872
#	252222
#	264165
#	275367
#	285760
#	296080
#
# Disc length: 4111 seconds
#
# Revision: 0
# Processed by: cddbd v1.5PL3 Copyright (c) Steve Scherf et al.
# Submitted via: dBpowerAMP V4.0
#
DISCID=9e100d1c
DTITLE=Various Artist - Aladdin and Imperial R&B Vocal Group Magic Vol. 1
DYEAR=1900
DGENRE=R&B
TTITLE0=Sha-Weez - No One To Love Me
TTITLE1=Mellow Drops - I want Your Love
TTITLE2=Dukes - Teardrop Eyes
TTITLE3=Sharp Tones - Made To Love
TTITLE4=Bees - Darling Please
TTITLE5=Hawks - He's The Fat Man
TTITLE6=Kidds - Are You Forgetting Me
TTITLE7=Patti Anne w_The Flames - Shtiggy Boom
TTITLE8=Lollypoppers - A Bottle Of Pop And A Lollypop
TTITLE9=Dave Collins and The Scrubs - Bluesy Me
TTITLE10=Dukes - Lost Dreams
TTITLE11=Barons - My Secret
TTITLE12=Velvetones - I Found My Love
TTITLE13=Jivers - Cherie
TTITLE14=Spence Sisters - Do BopSha Bam
TTITLE15=Feathers - Shake 'Em Up
TTITLE16=Wee Willie Wayne w_The Kidds - I Remember
TTITLE17=Shades - One Touch Of Heaven
TTITLE18=Kidds (Pelicans) - Down In Mexico
TTITLE19=Savoys - Hopin' For Your Return
TTITLE20=Five Keys - I Cried For You
TTITLE21=Bernie Williams and The Scrubs - Why Fool Yourself
TTITLE22=Sha-Weez - Feeling Sad
TTITLE23=Kidds - Drunk, Drunk, Drunk
TTITLE24=Pelicans - Ain't Gonna Do It
TTITLE25=Sha-Weez - You Made Me Love You
TTITLE26=Barons - Eternally Yours
TTITLE27=Pelicans - Chimes
EXTD=
EXTT0=
EXTT1=
EXTT2=
EXTT3=
EXTT4=
EXTT5=
EXTT6=
EXTT7=
EXTT8=
EXTT9=
EXTT10=
EXTT11=
EXTT12=
EXTT13=
EXTT14=
EXTT15=
EXTT16=
EXTT17=
EXTT18=
EXTT19=
EXTT20=
EXTT21=
EXTT22=
EXTT23=
EXTT24=
EXTT25=
EXTT26=
EXTT27=
PLAYORDER=
